<?xml version="1.0" standalone="no"?>
<!DOCTYPE svg PUBLIC "-//W3C//DTD SVG 20010904//EN"
 "http://www.w3.org/TR/2001/REC-SVG-20010904/DTD/svg10.dtd">
<svg version="1.0" xmlns="http://www.w3.org/2000/svg"
 width="1200.000000pt" height="1200.000000pt" viewBox="0 0 1200.000000 1200.000000"
 preserveAspectRatio="xMidYMid meet">
<metadata>
Created by potrace 1.11, written by Peter Selinger 2001-2013
</metadata>
<g transform="translate(0.000000,1200.000000) scale(0.100000,-0.100000)"
fill="#000000" stroke="none">
<path d="M5669 11816 c-2 -2 -53 -6 -114 -10 -60 -3 -121 -8 -135 -10 -14 -2
-57 -7 -97 -11 -39 -3 -82 -8 -95 -10 -26 -4 -111 -16 -148 -20 -53 -7 -257
-46 -420 -80 -227 -48 -636 -176 -845 -264 -11 -5 -72 -30 -135 -56 -212 -87
-542 -258 -755 -389 -224 -138 -631 -432 -715 -516 -3 -3 -36 -32 -75 -65
-144 -123 -359 -333 -495 -485 -47 -52 -93 -103 -104 -115 -44 -48 -249 -309
-318 -405 -355 -492 -638 -1052 -823 -1630 -69 -217 -156 -564 -180 -720 -4
-25 -9 -54 -11 -65 -3 -11 -7 -36 -10 -55 -2 -19 -7 -46 -9 -60 -7 -33 -24
-171 -31 -240 -3 -30 -7 -68 -9 -85 -27 -194 -27 -811 0 -1070 3 -27 7 -75 11
-105 3 -30 7 -68 9 -85 10 -80 17 -128 20 -145 2 -9 6 -35 9 -56 4 -22 10 -61
16 -89 5 -27 11 -63 14 -80 2 -16 9 -50 14 -75 6 -25 13 -56 16 -70 44 -215
149 -570 241 -810 90 -238 233 -550 335 -730 54 -97 162 -282 172 -295 4 -5
49 -73 100 -150 213 -324 429 -586 733 -891 305 -305 569 -523 910 -749 128
-84 341 -215 351 -215 2 0 22 -11 43 -24 42 -27 289 -152 422 -214 373 -174
949 -354 1364 -426 70 -12 224 -35 275 -41 30 -4 57 -8 60 -10 3 -2 43 -6 90
-10 47 -3 101 -8 120 -10 223 -23 845 -23 968 0 9 1 53 6 97 9 67 6 313 38
380 50 128 24 265 51 330 67 44 10 90 21 103 24 159 30 666 201 877 295 22 10
65 28 95 41 99 41 453 224 570 295 63 38 120 71 125 73 22 9 323 216 418 288
96 72 293 230 328 263 9 8 51 47 95 85 179 159 393 383 598 625 342 405 692
989 896 1495 18 44 38 94 45 110 16 38 105 294 138 400 50 158 131 487 153
624 3 18 8 43 10 55 2 11 7 37 10 56 2 19 9 58 14 85 5 28 12 75 15 105 4 30
8 66 10 80 2 14 7 54 10 90 3 36 8 83 10 105 24 223 24 796 0 990 -2 17 -6 62
-10 100 -3 39 -7 79 -9 90 -2 11 -7 45 -11 75 -20 158 -53 341 -96 535 -12 50
-22 97 -24 105 -2 8 -19 74 -39 145 -85 301 -191 591 -317 865 -203 439 -449
838 -753 1220 -55 69 -105 130 -110 136 -6 6 -36 40 -66 75 -61 70 -431 444
-495 499 -150 130 -188 162 -250 211 -129 103 -269 205 -390 286 -122 81 -313
203 -319 203 -2 0 -48 25 -102 56 -192 109 -447 231 -649 311 -49 19 -103 41
-120 48 -177 76 -683 220 -950 270 -128 24 -187 34 -235 40 -30 4 -57 8 -60
10 -3 2 -42 7 -85 10 -44 4 -83 9 -86 11 -3 2 -41 6 -85 9 -43 4 -99 9 -124
12 -54 6 -705 14 -711 9z m611 -2960 c118 -13 144 -16 235 -32 254 -44 493
-120 755 -242 80 -37 271 -149 360 -210 407 -281 723 -647 941 -1092 78 -158
170 -409 195 -525 2 -11 12 -56 23 -100 17 -71 25 -115 46 -255 15 -103 20
-194 20 -370 0 -256 -11 -362 -61 -624 -2 -10 -15 -62 -29 -116 -239 -929
-931 -1668 -1845 -1970 -148 -49 -374 -102 -495 -116 -33 -3 -69 -8 -80 -10
-47 -9 -219 -18 -340 -17 -208 0 -359 15 -588 58 -203 38 -478 135 -707 250
-145 72 -384 224 -475 302 -5 5 -41 35 -80 67 -100 84 -268 257 -360 372 -239
296 -430 672 -525 1028 -31 117 -58 238 -65 296 -3 19 -7 44 -9 56 -2 12 -7
57 -11 100 -4 43 -9 88 -12 99 -6 29 -5 382 1 435 3 25 8 68 11 95 7 72 15
133 25 190 5 28 12 61 14 75 13 73 67 272 99 365 105 303 277 613 481 865 90
111 307 326 421 416 90 71 170 127 319 222 130 84 470 233 633 278 89 25 241
62 271 67 15 3 43 8 62 11 19 3 48 8 64 11 34 5 205 24 256 28 65 5 384 0 450
-7z"/>
</g>
</svg>
